<?xml version="1.0" encoding="UTF-8" standalone="no"?>
<svg
   xmlns:dc="http://purl.org/dc/elements/1.1/"
   xmlns:cc="http://creativecommons.org/ns#"
   xmlns:rdf="http://www.w3.org/1999/02/22-rdf-syntax-ns#"
   xmlns:svg="http://www.w3.org/2000/svg"
   xmlns="http://www.w3.org/2000/svg"
   viewBox="0 0 170 154"
   height="154"
   width="170"
   xml:space="preserve"
   id="svg2"
   version="1.1"><metadata
     id="metadata8"><rdf:RDF><cc:Work
         rdf:about=""><dc:format>image/svg+xml</dc:format><dc:type
           rdf:resource="http://purl.org/dc/dcmitype/StillImage" /><dc:title></dc:title></cc:Work></rdf:RDF></metadata><defs
     id="defs6"><clipPath
       id="clipPath18"
       clipPathUnits="userSpaceOnUse"><path
         id="path16"
         d="M 0,595.28 H 841.89 V 0 H 0 Z" /></clipPath></defs><g
     transform="matrix(1.3333333,0,0,-1.3333333,-321.72343,320.74587)"
     id="g10"><g
       transform="matrix(0.32593392,0,0,0.32593343,164.14697,84.298529)"
       id="g1074"><g
         id="g20"
         transform="translate(573.1963,297.6399)"><path
           d="m 0,0 c 0,-87.736 -71.124,-158.861 -158.861,-158.861 -87.736,0 -158.861,71.125 -158.861,158.861 0,87.736 71.125,158.861 158.861,158.861 C -71.124,158.861 0,87.736 0,0"
           style="fill:#231f20;fill-opacity:1;fill-rule:nonzero;stroke:none"
           id="path22" /></g><g
         id="g24"
         transform="translate(584.9551,297.6399)"><path
           d="m 0,0 c 0,-94.485 -76.596,-171.081 -171.081,-171.081 -94.485,0 -171.081,76.596 -171.081,171.081 0,94.485 76.596,171.081 171.081,171.081 C -76.596,171.081 0,94.485 0,0 Z"
           style="fill:none;stroke:#231f20;stroke-width:3;stroke-linecap:butt;stroke-linejoin:miter;stroke-miterlimit:10;stroke-dasharray:3.003, 3.003;stroke-dashoffset:0;stroke-opacity:1"
           id="path26" /></g><g
         id="g28"
         transform="translate(560.9766,297.6399)"><path
           d="m 0,0 c 0,-80.987 -65.653,-146.64 -146.641,-146.64 -80.987,0 -146.641,65.653 -146.641,146.64 0,80.987 65.654,146.641 146.641,146.641 C -65.653,146.641 0,80.987 0,0 Z"
           style="fill:none;stroke:#ffffff;stroke-width:1;stroke-linecap:butt;stroke-linejoin:miter;stroke-miterlimit:10;stroke-dasharray:none;stroke-opacity:1"
           id="path30" /></g><g
         id="g32"
         transform="translate(370.2192,388.778)"><path
           d="m 0,0 c -5.979,-13.231 -10.193,-25.776 -13.819,-39.105 2.156,-0.196 4.41,-0.294 6.665,-0.294 4.312,0 8.33,0.392 9.996,1.372 2.843,1.569 6.273,8.723 9.115,18.719 1.96,6.665 4.018,14.016 4.018,18.23 0,1.274 -0.196,2.156 -0.588,2.744 C 14.015,3.43 6.371,1.666 0,0 m 18.622,-20.189 c -2.255,-8.527 -4.901,-17.152 -6.959,-19.112 -2.548,-2.254 -9.311,-3.038 -16.269,-3.038 -3.431,0 -6.861,0.196 -9.997,0.49 l -0.784,-3.038 c -2.842,-10.683 -5.684,-29.206 -6.076,-32.539 -0.197,-1.078 -0.589,-1.764 -1.079,-1.96 -0.49,-0.196 -0.882,-0.098 -1.372,0.588 -0.294,0.392 -4.116,3.528 -4.606,5.587 -0.098,0.392 -0.098,0.784 -0.098,0.98 1.764,9.506 5.783,20.287 9.016,29.5 l 0.491,1.47 c -2.646,0.49 -4.705,0.98 -5.881,1.568 -0.49,0.196 -0.588,0.49 -0.392,0.784 0.392,0.882 2.842,1.764 5.096,0.98 0.589,-0.196 1.372,-0.392 2.157,-0.49 4.312,11.957 9.114,24.208 15.093,37.635 -5.587,-1.666 -10.879,-3.626 -13.035,-4.901 -1.568,-0.98 -2.843,-1.372 -3.136,-0.686 -0.099,0.294 -0.099,0.686 0.098,1.372 0.588,1.765 2.156,5.783 4.41,8.233 0.784,0.882 1.568,1.47 2.352,1.862 2.352,1.176 14.799,2.549 21.464,2.156 1.96,-0.098 3.332,-0.489 4.018,-0.881 2.352,-1.079 7.253,-5.391 7.841,-8.429 0.392,-2.254 -0.294,-10.389 -2.352,-18.131"
           style="fill:#ffffff;fill-opacity:1;fill-rule:nonzero;stroke:none"
           id="path34" /></g><g
         id="g36"
         transform="translate(397.9517,364.7663)"><path
           d="m 0,0 c -0.784,0.392 -1.176,1.568 -1.176,3.136 0,1.078 0.098,2.254 0.49,3.43 0.784,2.843 2.548,5.293 4.018,4.705 C 4.116,10.879 4.508,9.604 4.508,8.037 4.508,6.958 4.41,5.782 4.018,4.606 3.136,1.764 1.47,-0.588 0,0 m 5.39,-23.424 c 0,0 -1.568,-3.038 -3.43,-6.664 -1.96,-3.626 -10.095,-9.997 -13.427,-8.723 -1.274,0.588 -2.744,6.958 -2.254,9.213 0.784,3.234 4.508,10.29 5.978,13.721 2.254,5.292 4.215,9.311 4.607,10.585 0.294,0.882 1.078,0.686 1.862,0.098 0.588,-0.294 0.588,-0.883 0.294,-1.372 l -0.098,-0.392 c -0.686,-1.471 -2.45,-7.057 -3.921,-12.742 -1.862,-6.762 -3.332,-13.622 -2.646,-14.211 0.882,-0.686 6.077,2.058 7.939,5.195 1.666,2.94 3.136,6.566 3.136,6.566 z"
           style="fill:#ffffff;fill-opacity:1;fill-rule:nonzero;stroke:none"
           id="path38" /></g><g
         id="g40"
         transform="translate(415.1006,355.9455)"><path
           d="m 0,0 c -1.862,-2.744 -2.548,-6.762 -2.548,-10.584 0,-1.961 0.195,-3.921 0.49,-5.587 0.392,0.784 0.882,1.666 1.274,2.646 C 2.548,-6.076 5.292,2.842 4.116,3.43 3.626,3.725 2.058,2.45 0,0 m -4.999,-11.173 c 0,1.862 0.099,3.725 0.393,5.293 -2.549,-3.724 -5.685,-9.017 -6.959,-11.369 -0.294,-1.47 -0.294,-1.176 -0.294,-1.568 0.392,-2.058 1.078,-5.783 1.764,-7.351 0.392,-1.078 0.588,-0.882 1.568,0 1.176,1.176 2.842,3.528 4.705,6.861 -0.883,2.352 -1.177,5.292 -1.177,8.134 m 19.014,-3.528 c 0,0 -2.548,-5.096 -3.823,-7.056 -1.469,-2.353 -4.9,-4.313 -7.546,-4.019 -1.078,0.196 -2.352,0.686 -3.528,1.764 -2.352,-3.626 -4.998,-6.468 -6.665,-6.566 -2.45,-0.098 -4.9,2.45 -5.292,3.528 -0.098,0.196 -0.294,1.274 -0.392,2.156 -1.568,-7.742 -3.332,-13.721 -4.214,-20.483 -0.098,-0.392 -0.589,-1.176 -1.177,-1.47 -1.764,-1.078 -4.116,-2.156 -6.076,-2.255 -0.196,0 -0.392,0.099 -0.49,0.393 -0.098,0.293 0,0.587 0.196,1.176 3.038,7.938 5.783,16.759 9.801,30.088 3.528,11.761 6.86,20.189 7.253,21.464 0.293,0.783 1.077,0.686 1.861,0.097 0.785,-0.49 0.491,-1.077 0.197,-1.764 -0.491,-0.98 -2.058,-6.37 -3.627,-11.761 1.176,1.764 2.255,3.529 3.43,5.293 C -2.842,0.686 1.666,5.88 2.94,6.272 4.704,6.763 8.429,4.019 8.723,2.254 8.919,0.49 6.958,-8.037 4.214,-14.897 c -0.98,-2.156 -2.254,-4.606 -3.626,-6.958 0.882,-0.687 1.764,-0.98 2.646,-1.079 1.862,-0.294 4.411,1.372 5.586,3.038 1.177,1.765 3.235,6.665 3.235,6.665 z"
           style="fill:#ffffff;fill-opacity:1;fill-rule:nonzero;stroke:none"
           id="path42" /></g><g
         id="g44"
         transform="translate(437.9336,356.6316)"><path
           d="m 0,0 c -2.549,-3.234 -4.803,-8.429 -5.979,-12.349 0.882,-0.098 2.451,-0.196 3.333,0.196 0.98,0.49 2.841,2.647 4.606,6.567 1.666,3.92 1.862,7.35 1.078,7.939 C 2.842,2.548 1.666,2.254 0,0 m 10.683,-15.387 c 0,0 -1.666,-3.724 -3.529,-6.861 -1.862,-3.136 -7.253,-9.016 -10.487,-9.506 -2.352,-0.294 -8.526,1.862 -9.605,4.312 -0.685,1.764 -0.685,8.527 3.333,18.327 C -5.783,0.392 -0.883,4.999 1.176,5.292 2.646,5.586 5.88,3.822 6.174,2.058 6.468,0.294 5.586,-3.43 4.312,-6.37 c -1.862,-4.411 -5.195,-8.331 -6.371,-8.723 -0.98,-0.392 -3.234,-0.098 -4.606,0.098 -0.784,-3.822 -1.078,-7.742 -1.078,-10.389 0,-1.764 0.098,-2.94 0.392,-3.136 1.764,-1.274 9.703,3.43 12.545,7.546 1.862,2.647 3.62,6.527 3.816,6.821 z"
           style="fill:#ffffff;fill-opacity:1;fill-rule:nonzero;stroke:none"
           id="path46" /></g><g
         id="g48"
         transform="translate(470.666,341.2444)"><path
           d="m 0,0 c 0,0 -2.549,-5.194 -4.019,-7.546 -2.352,-3.823 -8.232,-8.527 -11.565,-8.135 -1.96,0.196 -3.724,6.958 -3.332,10.095 0.196,1.96 3.431,7.056 4.509,8.82 2.057,3.431 3.822,6.469 3.626,7.253 -0.294,1.176 -0.784,1.078 -1.666,1.372 -1.176,0.294 -1.96,1.372 -2.254,2.548 -0.588,-1.274 -1.666,-3.332 -3.627,-7.252 -2.548,-4.802 -2.84,-5.936 -4.604,-9.072 -0.98,-1.863 -1.766,-1.905 -2.06,-1.513 -0.392,0.49 -0.347,1.498 0.045,2.184 1.078,2.058 2.895,6.049 4.365,9.871 1.372,3.528 2.744,8.134 2.94,8.918 -0.196,0.491 -1.469,2.941 -1.469,3.725 0.097,1.372 1.372,3.332 2.645,3.724 1.078,0.294 3.822,-0.49 4.019,-1.764 0.294,-1.862 -0.392,-4.214 -0.784,-4.999 0.196,-1.078 0.293,-2.156 1.175,-2.939 0.589,-0.491 1.471,-0.981 3.039,-0.981 0.392,0 0.686,-0.294 0.98,-0.686 0.686,-1.176 1.078,-3.92 0.294,-5.194 -1.862,-3.43 -4.116,-9.507 -5.096,-13.917 -0.295,-1.176 -0.392,-2.157 -0.392,-2.94 0,-1.667 0.49,-2.353 0.98,-2.647 0.686,-0.294 4.998,2.157 7.252,6.077 1.862,3.234 3.124,6.23 3.124,6.23 z"
           style="fill:#ffffff;fill-opacity:1;fill-rule:nonzero;stroke:none"
           id="path50" /></g><g
         id="g52"
         transform="translate(477.5918,325.3283)"><path
           d="m 0,0 c -3.528,-0.98 -9.702,1.47 -10.879,4.312 -0.392,0.882 0,1.373 0.687,1.373 0.685,0.097 1.469,-0.686 2.156,-0.883 2.254,-0.588 4.116,-0.588 5.586,0 0.882,0.392 3.332,3.529 3.43,4.802 0.098,0.785 -0.196,2.745 -0.686,5.391 -0.588,3.528 -0.882,7.547 -0.882,11.369 0,1.274 0,2.548 0.098,3.822 C -0.979,28.912 -2.254,25.482 -3.038,23.62 -4.019,21.169 -8.723,12.447 -8.723,12.447 l -1.763,1.176 c 0,0 3.92,8.135 5.488,11.859 1.372,3.43 3.038,8.624 3.234,9.212 0.098,2.941 0.49,6.175 0.98,8.037 0.196,0.686 0.882,0.686 1.372,0.588 C 2.156,43.123 3.626,41.751 4.019,40.771 4.606,39.497 4.312,39.105 3.528,38.027 2.94,37.243 2.744,36.458 2.353,35.479 1.862,33.911 1.372,29.206 1.765,26.168 2.156,22.738 3.431,19.405 4.606,16.367 5.782,13.231 6.86,10.585 6.665,8.723 6.37,5.88 2.156,0.588 0,0"
           style="fill:#ffffff;fill-opacity:1;fill-rule:nonzero;stroke:none"
           id="path54" /></g><g
         id="g56"
         transform="translate(357.1362,255.9861)"><path
           d="m 0,0 c -2.744,-10.684 -5.685,-29.305 -6.077,-32.539 -0.195,-1.078 -0.588,-1.764 -1.078,-2.058 -0.49,-0.196 -0.882,0 -1.372,0.588 -0.294,0.392 -4.116,3.529 -4.606,5.586 -0.098,0.49 -0.098,0.784 -0.098,1.078 1.078,5.685 4.214,15.78 7.252,24.601 -1.764,2.254 -4.41,4.9 -6.664,5.39 -2.352,0.588 -6.37,-0.98 -10.192,-2.94 l -0.785,-3.039 c -2.842,-10.78 -6.468,-32.636 -6.958,-35.87 -0.196,-1.078 -0.589,-1.765 -1.078,-2.059 -0.49,-0.195 -0.883,0 -1.372,0.589 -0.294,0.392 -4.411,4.508 -4.901,6.567 -0.098,0.391 -0.098,0.783 -0.098,1.078 0.98,5.88 5.685,18.817 9.311,29.303 -3.038,-2.156 -5.881,-4.606 -8.233,-6.468 -0.588,-0.491 -1.372,-0.491 -1.764,-0.392 -0.196,0.098 -0.49,0.392 -0.882,0.882 -0.784,0.98 -2.548,4.998 -2.842,6.076 -0.098,0.393 -0.098,0.687 0.098,0.784 2.45,1.666 9.506,4.41 15.877,5.782 4.313,12.545 8.723,24.307 15.093,38.518 0.392,0.881 1.078,0.881 1.568,0.587 0.588,-0.294 0.98,-0.98 0.686,-1.567 -5.782,-12.742 -9.212,-24.012 -12.643,-36.557 2.745,0.49 11.075,1.765 13.526,0.882 1.469,-0.588 3.038,-2.548 3.626,-3.724 5.194,14.799 10.683,29.401 17.053,43.711 0.392,0.882 1.078,0.882 1.568,0.588 0.588,-0.294 0.98,-0.981 0.686,-1.568 C 7.84,28.716 4.018,15.484 0,0"
           style="fill:#ffffff;fill-opacity:1;fill-rule:nonzero;stroke:none"
           id="path58" /></g><g
         id="g60"
         transform="translate(391.3379,243.3425)"><path
           d="m 0,0 c 0,0 -1.667,-3.038 -3.528,-6.664 -1.863,-3.626 -9.997,-9.997 -13.329,-8.723 -0.98,0.491 -1.079,4.116 -0.883,6.763 -2.156,-3.137 -4.802,-6.665 -5.88,-6.86 -2.352,-0.393 -7.056,2.939 -7.448,4.899 -0.491,1.961 5.586,22.248 6.468,24.601 0.49,1.567 0.98,2.547 1.666,3.038 0.882,0.685 3.332,1.763 4.998,2.057 0.588,0.099 1.373,0.099 1.765,-0.097 0.294,-0.197 0.294,-0.588 -0.099,-1.275 -4.018,-5.978 -11.956,-29.107 -9.8,-30.185 1.666,-0.883 6.861,5.586 9.213,8.526 0.881,3.626 2.548,8.625 3.626,11.467 2.156,5.292 4.41,9.801 4.802,11.075 0.294,0.783 1.078,0.686 1.862,0.098 0.784,-0.491 0.49,-1.078 0.196,-1.765 -0.784,-1.666 -2.744,-8.036 -4.41,-14.309 -1.666,-6.37 -2.94,-12.642 -2.254,-13.132 0.882,-0.687 6.076,2.057 7.84,5.194 1.667,2.94 3.235,6.566 3.235,6.566 z"
           style="fill:#ffffff;fill-opacity:1;fill-rule:nonzero;stroke:none"
           id="path62" /></g><g
         id="g64"
         transform="translate(402.1162,257.8474)"><path
           d="m 0,0 c -1.666,-2.155 -3.822,-5.586 -6.076,-10.192 -4.508,-9.213 -5.391,-16.074 -4.215,-16.955 0.687,-0.588 6.077,2.253 9.213,4.802 0.588,4.41 1.862,10.29 3.431,16.465 0.881,3.528 1.372,8.233 0.783,8.723 C 2.646,3.234 1.568,2.156 0,0 M 9.507,3.921 C 4.116,-10.78 1.568,-24.501 2.353,-25.09 c 0.881,-0.489 5.488,1.961 6.958,4.313 1.764,2.744 3.92,7.449 3.92,7.449 l 1.96,-1.078 c 0,0 -2.45,-4.901 -4.214,-7.743 -2.548,-4.313 -8.919,-9.115 -11.565,-7.939 -0.882,0.393 -1.078,1.765 -0.98,3.431 v 0.49 c -2.156,-2.059 -5.292,-4.215 -6.861,-4.509 -2.254,-0.49 -6.272,4.019 -6.37,5.685 -0.294,2.351 0.294,9.213 3.92,16.857 3.528,7.252 7.351,12.055 8.821,13.034 0.686,0.491 2.254,0.687 3.724,0.687 1.274,0 2.353,-0.098 2.842,-0.49 C 4.802,4.9 4.999,4.509 5.097,4.117 l 0.588,1.666 c 4.704,15.387 9.016,24.796 9.408,25.678 0.49,1.078 1.177,2.058 1.863,2.45 1.175,0.784 3.625,1.47 5.684,1.47 1.568,0 1.764,-1.274 0.98,-2.352 C 21.954,30.48 15.191,19.406 9.507,3.921"
           style="fill:#ffffff;fill-opacity:1;fill-rule:nonzero;stroke:none"
           id="path66" /></g><g
         id="g68"
         transform="translate(445.3359,243.0486)"><path
           d="m 0,0 c 0,0 -1.961,-4.019 -2.843,-5.586 -0.882,-1.568 -4.214,-5.685 -8.135,-4.116 -2.057,0.882 -3.233,3.626 -3.626,7.154 -4.606,-7.448 -9.506,-13.133 -10.878,-13.427 -1.765,-0.294 -4.901,1.568 -5.489,3.235 -0.294,0.685 -0.392,1.96 -0.392,3.723 0,3.038 0.49,7.351 1.568,12.545 1.372,6.567 3.528,13.035 4.313,14.016 1.078,1.273 4.508,3.233 5.978,3.332 0.588,0 0.981,-0.294 0.588,-0.98 -1.372,-2.647 -4.116,-8.821 -6.468,-18.818 -1.47,-6.566 -2.549,-13.818 -1.667,-14.113 1.961,-0.686 7.547,8.037 11.86,16.563 0.391,4.509 1.568,9.311 3.332,13.035 0.588,1.275 1.175,2.254 1.96,2.941 0.882,0.685 4.018,1.666 5.39,1.666 0.687,-0.099 1.078,-0.393 0.882,-1.176 -0.392,-1.765 -3.724,-9.997 -8.232,-17.935 l -0.294,-0.588 c -0.294,-4.705 0.784,-7.841 2.548,-8.625 1.764,-0.882 4.018,1.372 5.586,4.018 0.686,1.176 2.157,4.704 2.157,4.704 z"
           style="fill:#ffffff;fill-opacity:1;fill-rule:nonzero;stroke:none"
           id="path70" /></g><g
         id="g72"
         transform="translate(460.916,279.6052)"><path
           d="m 0,0 c -2.548,0 -4.508,-1.862 -4.508,-4.41 0,-2.353 2.156,-4.508 4.508,-4.508 2.45,0 4.41,2.058 4.41,4.508 C 4.41,-1.862 2.45,0 0,0 m -0.098,-11.761 c -4.116,0 -7.448,3.332 -7.448,7.449 0,4.018 3.43,7.449 7.448,7.449 4.019,0 7.449,-3.431 7.449,-7.449 0,-4.214 -3.235,-7.449 -7.449,-7.449 m -1.96,-7.056 c -0.49,0.294 -1.568,-0.785 -3.136,-2.941 -1.666,-2.254 -3.823,-5.782 -5.979,-10.29 -4.508,-9.115 -5.488,-15.485 -4.312,-16.367 1.078,-0.784 5.096,3.92 6.665,6.37 0.588,0.981 1.568,2.941 2.646,5.293 1.666,3.724 3.234,7.448 4.802,11.074 0.196,3.038 0.099,6.273 -0.686,6.861 M 9.213,-36.36 c 0,0 -1.666,-3.038 -3.528,-6.664 -1.96,-3.529 -8.821,-9.9 -12.153,-8.625 -0.883,0.391 -1.862,3.626 -2.255,6.272 -0.881,-1.96 -3.038,-6.566 -5.292,-7.057 -2.352,-0.49 -5.782,4.019 -5.978,5.685 -0.196,2.352 0.391,9.114 4.018,16.661 3.43,7.253 7.252,12.055 8.723,13.035 0.588,0.491 2.156,0.686 3.626,0.686 1.274,0 2.45,-0.195 2.94,-0.49 0.785,-0.686 0.98,-3.234 0.98,-5.096 0.883,1.764 1.471,3.136 1.666,3.724 0.295,0.784 1.078,0.588 1.862,0.098 0.588,-0.392 0.588,-0.882 0.294,-1.471 l -0.097,-0.294 c -1.569,-3.332 -8.037,-25.874 -6.567,-26.853 0.882,-0.687 4.704,1.96 6.567,5.194 1.666,2.842 3.135,6.469 3.135,6.469 z"
           style="fill:#ffffff;fill-opacity:1;fill-rule:nonzero;stroke:none"
           id="path74" /></g><g
         id="g76"
         transform="translate(491.8838,243.2448)"><path
           d="m 0,0 c 0,0 -2.548,-5.194 -4.019,-7.547 -2.351,-3.822 -8.232,-8.526 -11.564,-8.135 -1.96,0.197 -3.725,6.959 -3.332,10.095 0.195,1.961 3.43,7.057 4.508,8.821 2.058,3.43 3.822,6.469 3.627,7.252 -0.294,1.177 -0.784,1.078 -1.667,1.372 -1.176,0.295 -1.96,1.372 -2.254,2.549 -0.588,-1.274 -1.666,-3.332 -3.626,-7.253 -2.548,-4.801 -2.744,-5.978 -4.509,-9.114 -0.979,-1.862 -1.861,-1.862 -2.156,-1.471 -0.392,0.491 -0.392,1.569 0,2.255 1.078,2.058 2.94,5.979 4.411,9.801 1.372,3.528 2.744,8.134 2.939,8.918 -0.195,0.49 -1.469,2.94 -1.469,3.725 0.097,1.372 1.372,3.332 2.646,3.724 1.078,0.294 3.822,-0.49 4.018,-1.764 0.295,-1.863 -0.392,-4.214 -0.783,-4.999 0.195,-1.078 0.293,-2.156 1.175,-2.94 0.588,-0.49 1.47,-0.98 3.038,-0.98 0.392,0 0.687,-0.294 0.981,-0.686 0.685,-1.176 1.078,-3.92 0.294,-5.194 -1.862,-3.431 -4.116,-9.507 -5.097,-13.917 -0.294,-1.176 -0.391,-2.157 -0.391,-2.941 0,-1.666 0.489,-2.352 0.979,-2.646 0.687,-0.294 4.999,2.156 7.253,6.077 1.862,3.233 3.038,6.272 3.038,6.272 z"
           style="fill:#ffffff;fill-opacity:1;fill-rule:nonzero;stroke:none"
           id="path78" /></g><g
         id="g80"
         transform="translate(502.7598,257.8474)"><path
           d="m 0,0 c -1.666,-2.155 -3.822,-5.586 -6.076,-10.192 -4.508,-9.213 -5.391,-16.074 -4.214,-16.955 0.686,-0.588 6.076,2.253 9.212,4.802 0.589,4.41 1.862,10.29 3.431,16.465 0.881,3.528 1.372,8.233 0.784,8.723 C 2.646,3.234 1.568,2.156 0,0 M 9.507,3.921 C 4.116,-10.78 1.568,-24.501 2.353,-25.09 c 0.881,-0.489 5.488,1.961 6.959,4.313 1.763,2.744 3.919,7.449 3.919,7.449 l 1.96,-1.078 c 0,0 -2.45,-4.901 -4.213,-7.743 -2.549,-4.313 -8.919,-9.115 -11.566,-7.939 -0.882,0.393 -1.078,1.765 -0.979,3.431 v 0.49 c -2.157,-2.059 -5.293,-4.215 -6.862,-4.509 -2.254,-0.49 -6.272,4.019 -6.37,5.685 -0.294,2.351 0.294,9.213 3.92,16.857 3.528,7.252 7.351,12.055 8.821,13.034 0.686,0.491 2.254,0.687 3.724,0.687 1.274,0 2.353,-0.098 2.843,-0.49 C 4.803,4.9 4.999,4.509 5.097,4.117 l 0.588,1.666 c 4.704,15.387 9.016,24.796 9.409,25.678 0.49,1.078 1.176,2.058 1.862,2.45 1.176,0.784 3.626,1.47 5.684,1.47 1.568,0 1.764,-1.274 0.98,-2.352 C 21.954,30.48 15.191,19.406 9.507,3.921"
           style="fill:#ffffff;fill-opacity:1;fill-rule:nonzero;stroke:none"
           id="path82" /></g></g></g></svg>