<?xml version="1.0" encoding="UTF-8"?>
<!-- Created with Inkscape (http://www.inkscape.org/) -->
<svg width="724" height="724" version="1.1" viewBox="0 0 191.56 191.56" xml:space="preserve" xmlns="http://www.w3.org/2000/svg"><g><g><circle cx="95.779" cy="95.779" r="95.779"/><g fill="#fff"><g stroke-width=".26458"><path d="m36.453 50.59-5.7361-5.2739q-1.1123-1.0227-1.5472-1.1407-0.44571-0.12806-1.2527 0.37761-1.1859 0.72078-1.8838 0.0791-0.49073-0.45119-0.37146-1.1062 0.11928-0.65503 0.84118-1.4402 0.24063-0.26172 1.2258-1.2676l0.60159-0.65431q1.6535-1.8203 1.9233-2.1357 0.26896-0.3363 1.8491-2.4051 0.5161-0.69266 0.99736-1.2161 1.6443-1.7885 3.6584-2.5126 3.5009-1.2688 6.249 1.2578 2.2247 2.0454 2.0019 4.9798-0.21977 2.7561-2.3153 5.0353-0.5314 0.57798-1.3798 1.3475-0.4438 0.41704-0.54406 0.52609-0.29077 0.31625 0.0691 0.64712l0.0654 0.06016 1.8586 1.568q0.5435 0.45946 0.95562 0.53651 0.41124 0.05612 1.1651-0.21667 1.0334-0.35792 1.4805 0.05317 0.68703 0.63166 0.0953 2.0195-0.59175 1.3878-2.3564 3.3071-3.7098 4.0349-5.0947 2.7616-0.32716-0.30079-0.34122-0.6357-0.0141-0.3349 0.25034-1.2791 0.15375-0.58309-0.15687-0.98942t-2.308-2.283zm-2.5992-11.465 3.7078 3.409q0.4253 0.39103 0.68299 0.28585 0.44344-0.17588 0.8846-0.65571 0.66174-0.71974 0.70943-1.5815 0.0737-1.2402-1.2894-2.4935-1.4177-1.3034-2.8122-1.0562-0.88476 0.15248-1.5666 0.89403-0.74195 0.80699-0.31665 1.198z"/><path d="m52.195 19.472q1.4605-0.84788 2.9032-1.3428 1.9432-0.66559 2.5977 0.46183 0.21568 0.37154 0.14789 0.66783-0.0624 0.27605-0.55881 1.0438-0.41827 0.63679-0.0303 1.7477 0.40076 1.1034 2.0816 3.9988 2.8411 4.894 3.7614 5.9185 0.30537 0.31947 0.60373 0.42033 0.30374 0.08061 0.89883 0.04347 1.0687-0.10653 1.4926 0.62373 0.595 1.0249-0.74488 2.3166-1.4531 1.3917-3.9001 2.8123-4.1766 2.4246-5.0988 0.836-0.33469-0.57652 0.19519-1.5522 0.40464-0.74878 0.13319-1.4819-0.60446-1.6018-3.3563-6.3421-1.904-3.2798-2.7726-4.0088-0.4843-0.42115-1.4087-0.44974-0.72609-0.04097-1.0393-0.16746-0.31323-0.12648-0.52148-0.48521-0.31982-0.5509 0.0195-1.1761 0.34471-0.64548 1.5412-1.6826 1.4155-1.25 3.0554-2.202z"/><path d="m71.614 25.151-1.751-7.5928q-0.33955-1.4724-0.63153-1.8155-0.2953-0.35758-1.2469-0.39657-1.3857-0.0757-1.5988-0.99954-0.14981-0.64958 0.31883-1.1225 0.46863-0.47294 1.508-0.71263 0.34644-0.0799 1.7278-0.35284l0.8661-0.19974q2.3929-0.56705 2.7937-0.67469 0.41196-0.12541 2.8848-0.93894 0.81726-0.27969 1.5101-0.43948 2.3674-0.54595 4.4381-0.0049 3.6052 0.9321 4.4441 4.5697 0.67911 2.9447-1.1633 5.2396-1.7391 2.1494-4.756 2.8451-0.76505 0.17644-1.8998 0.33172-0.60183 0.09318-0.74618 0.12647-0.41861 0.09654-0.30876 0.5729l0.02 0.08661 0.647 2.344q0.18866 0.68622 0.48508 0.98273 0.30752 0.27874 1.0836 0.47983 1.0548 0.28884 1.1913 0.88068 0.20973 0.90941-1.0628 1.7198t-3.8131 1.3963q-5.341 1.2317-5.7637-0.60153-0.0999-0.43305 0.0778-0.71728 0.1777-0.28422 0.9295-0.91368 0.45641-0.39411 0.42983-0.90487-0.0266-0.51076-0.61356-3.1879zm4.3364-10.927 1.1318 4.9079q0.12983 0.56297 0.40186 0.62185 0.46522 0.10555 1.1004-0.04093 0.95271-0.21971 1.4791-0.90361 0.76184-0.98144 0.34572-2.7858-0.43277-1.8766-1.7229-2.4608-0.81606-0.3743-1.7976-0.14794-1.0682 0.24634-0.93836 0.80931z"/><path d="m100.17 8.2558 7.5439 1.0334q2.2896 0.31364 3.3437 0.36832 1.0708 0.04202 2.109-0.11481 0.32027-0.04584 0.4964-0.02172 0.76319 0.10455 1.2377 1.0069 0.78572 1.4683 0.52636 3.3616-0.13068 0.954-0.61803 1.4554-0.47066 0.48876-1.1752 0.39226-0.48434-0.06635-0.73706-0.29534-0.23604-0.24166-0.59653-0.9938-0.51108-1.0718-1.4649-1.5314-0.93711-0.47227-3.1974-0.78189-1.6878-0.23121-2.1372 0.32028-0.23503 0.29675-0.35345 0.83377-0.10375 0.53902-0.40934 2.7699-0.12063 0.88061 0.14275 1.141 0.26539 0.24569 1.5129 0.41658 0.61643 0.08444 0.92947-0.12687 0.31505-0.22598 0.4789-0.87639 0.21935-0.83718 0.36431-1.1313 0.16164-0.30681 0.48735-0.50143 0.3444-0.22196 0.75535-0.16567 0.60176 0.08243 0.94897 0.71313 0.24991 0.46785 0.30661 1.5821 0.0734 1.1016-0.0874 2.2757-0.31766 2.3189-1.2399 3.7028-0.50686 0.75294-1.3141 0.64237-0.49902-0.06836-0.65564-0.344-0.15461-0.29032-0.14677-1.1116 7e-3 -1.6886-1.7102-1.9239-0.66045-0.09047-0.96826 0.30098-0.29113 0.37878-0.44594 1.5089-0.0945 0.68981-0.15722 1.8026-0.046 1.1002 8e-3 1.4665 0.0571 0.45639 0.63473 0.71494 0.59431 0.24589 2.018 0.4409 2.2015 0.30157 3.3934-0.10335 1.1938-0.4196 2.1014-1.8055 0.52756-0.79496 0.89066-1.0443 0.37778-0.2473 0.90615-0.17492 0.61642 0.08444 0.93831 0.68177 0.33857 0.58466 0.228 1.3919-0.12063 0.88061-0.75656 2.1392-0.63593 1.2586-1.4371 2.1955-0.40592 0.45277-0.64819 0.58406-0.24428 0.14596-0.58185 0.09972-0.27886-0.0382-0.79516-0.19864-0.91519-0.30479-2.4796-0.56395l-12.446-1.7049q-0.74852-0.10254-1.1152-0.48172-0.36471-0.39386-0.28228-0.99561 0.0583-0.42563 0.26056-0.5923t0.87358-0.37376q0.46644-0.13048 0.71011-0.3812 0.25836-0.2487 0.45016-0.77566 0.78792-2.1499 1.3026-5.9071 0.77605-5.6653 0.27462-7.2441-0.10656-0.31364-0.2666-0.45518t-0.69564-0.37938q-0.8024-0.3641-0.68378-1.23 0.0643-0.46966 0.39345-0.79838 0.32913-0.32872 0.80019-0.38381 0.5905-0.05368 2.2343 0.17149z"/><path d="m131.04 29.276q-0.48803-0.28056-0.79912-0.06639-0.29824 0.22156-0.91843 1.3004-0.93766 1.6311-1.2564 2.661-0.0835 0.29377-0.0362 0.50888 0.0472 0.2151 0.28869 0.62732 0.52693 0.86681 0.12824 1.5603-0.48729 0.84763-1.7728 0.58705-1.2653-0.26605-3.821-1.7353-4.7519-2.7318-3.7182-4.5298 0.1772-0.30823 0.42184-0.40682 0.25202-0.11143 0.94485-0.1574 0.77921-0.04758 1.2598-0.43771 0.50082-0.39559 1.294-1.597 0.58842-0.87493 3.8223-6.5001 1.0263-1.7852 1.2156-2.5307 0.18936-0.74551-0.2316-1.3805-0.41004-0.59456-0.47717-0.92364-0.0598-0.34192 0.14698-0.70152 0.27318-0.47519 0.83212-0.61522 0.57918-0.14549 1.3302 0.06409 0.63346 0.1762 1.5967 0.72994 0.42382 0.24364 2.0452 1.3467 0.30631 0.21026 0.99982 0.60896 1.1559 0.66449 3.1709 1.6178 1.2718 0.6115 1.7598 0.89206 2.7484 1.58 3.7859 3.9365 0.93157 2.1247-0.28665 4.2438-0.67925 1.1815-1.8055 1.8328-1.1188 0.63836-2.3883 0.55788-0.5291-0.03078-0.69153 0.25177-0.21412 0.37244 0.28229 0.96539 1.068 1.2633 1.1287 2.6139 0.0608 1.3507-0.84342 3.5478-0.37171 0.91408-0.30104 1.2965 0.0781 0.36953 0.74141 1.0585 0.19972 0.21734 0.21901 0.57018 0.0267 0.34-0.15052 0.64823-0.22887 0.39813-0.77337 0.63191-0.5371 0.22093-1.158 0.17155-1.3668-0.11931-3.2418-1.1973-2.5044-1.4397-2.8227-3.3827-0.1484-0.87134 0.0217-1.9697 0.18291-1.091 0.81327-3.2575 0.40602-1.3899 0.23162-2.1566-0.16156-0.75929-0.98704-1.2851zm3.0205-6.9781-1.8616 2.9112q-0.0222 0.03853-0.0664 0.11559-0.2658 0.46234-0.22596 0.69029 0.0527 0.23533 0.46364 0.47159 1.1302 0.64972 1.9761 0.36712 0.85334-0.29545 1.5917-1.5797 1.425-2.4787-0.33452-3.4902-0.50088-0.28794-0.83926-0.1749-0.33839 0.11304-0.7037 0.68905z"/><path d="m162.73 40.288q0.95418 1.1907 1.9117 3.5936 0.11592 0.28678 0.22709 0.4255 0.0926 0.1156 0.76392 0.52684 0.21758 0.12938 0.38433 0.33745 0.62068 0.77452 0.0809 2.6119-0.53055 1.849-1.6403 2.7383-0.64735 0.51878-1.4132 0.48704-0.74499-0.02945-1.1897-0.58432-0.37055-0.4624-0.41719-0.89962-0.0466-0.43722 0.0792-2.1517 0.18303-2.4248-0.89158-3.7657-0.51878-0.64736-1.1459-0.79027-0.61783-0.13135-1.1265 0.27626-1.0057 0.80596-0.097 2.9822 1.2125 2.958 1.4261 3.8879 0.92888 4.0965-1.8571 6.3291-2.4623 1.9732-5.6348 1.2124-3.2442-0.77924-5.903-4.0969-1.1858-1.4797-2.1545-3.3991-0.95712-1.9287-1.0668-3.0368-0.0747-0.85132 0.80087-2.2934 0.89644-1.4398 2.0756-2.3847 0.56643-0.45393 1.0407-0.45433 0.60152-0.0074 0.95355 0.43183 0.35203 0.43928 0.22543 1.2052-0.0598 0.44656-0.71282 2.4506-0.30459 0.9465 9e-3 2.2141 0.32266 1.2791 1.1194 2.2733 0.68553 0.85543 1.4238 1.1371 0.74981 0.27237 1.2469-0.12598 0.4624-0.37056 0.46413-1.0554 2e-3 -0.68481-0.45964-1.8528-0.80455-2.0699-1.0716-3.2797-0.25551-1.219-0.19875-2.4985 0.15468-3.1234 2.2124-4.7724 1.0173-0.81523 2.3566-1.1102 1.3509-0.30421 2.7508-0.0023 3.1863 0.63585 5.4282 3.4334z"/><path d="m34.318 124.47q2.3044 4.0065 0.64786 4.9593-0.44945 0.2585-0.85013 0.21553-0.40069-0.043-1.0798-0.42141-0.59624-0.32356-1.1783-0.17676-0.57467 0.15963-2.1028 1.0386-0.89889 0.51702-0.91232 0.96907-0.0176 0.26648 0.17827 0.66649 0.20328 0.41285 1.0379 1.8639 0.76075 1.3227 1.0866 1.5624t0.89092-0.0852q1.6951-0.97494 2.2742-1.5131 0.57912-0.53816 0.5646-1.1279-4e-3 -0.74967 0.11095-1.055 0.12774-0.31272 0.50014-0.52691 0.5265-0.30283 1.1792-0.14848 0.66557 0.14697 1.189 0.7004 1.0892 1.1509 2.2488 3.167 1.359 2.3628 1.565 3.7311 0.22619 1.3738-0.68555 1.8982-0.77048 0.44315-1.6136-0.13144-0.51919-0.36786-0.82613-0.3964-0.29409-0.0359-0.92365 0.20655-0.35058 0.13328-2.9246 1.5112-2.5741 1.378-4.0637 2.2347-2.6068 1.4993-3.2023 2.0982-0.32616 0.3243-0.38071 0.52658-0.0546 0.20227-0.0483 1.1044 0.011 0.64307-0.54118 0.96067-0.97595 0.56132-2.0975-0.34874-1.1013-0.9046-2.6007-3.5114-1.3147-2.2858-1.493-3.6358-0.15779-1.2251 0.70258-1.72 0.73196-0.421 1.5786 0.1003 0.41966 0.25422 0.69898 0.26446 0.2867 0.0231 0.91274-0.1661 1.2116-0.38927 2.7783-1.2903 0.80901-0.46532 0.86129-0.82009 0.0597-0.34193-0.51642-1.3436-1.3221-2.2986-1.9408-2.7801-0.25045-0.19775-0.78819 0.0261-0.6607 0.27747-1.5596 0.79448-1.4639 0.84199-1.8696 1.6222-0.12422 0.25943-0.14243 0.97057 2e-3 0.7166-0.70427 1.1228-0.89889 0.51701-2.0904-0.45533-1.1916-0.97233-2.521-3.2838-1.2113-2.106-1.5428-3.6926-0.13975-0.68865 0.0149-1.2219 0.17491-0.52784 0.59867-0.77157 0.42377-0.24374 0.77309-0.17122 0.34932 0.0725 1.1077 0.55914 0.38659 0.25616 0.75034 0.23493 0.37114-8e-3 1.0832-0.31542 1.6132-0.67152 4.0402-2.0675 0.44944-0.2585 1.0584-0.62587 3.0524-1.824 3.489-2.0751 1.1117-0.62235 1.3403-1.0272 0.24877-0.39942 0.18507-1.4907-0.0553-0.72012 0.48403-1.0303 1.297-0.74597 3.2454 1.4829 1.1373 1.294 2.0236 2.835z"/><path d="m55.566 159.85-2.2793 2.8053q-2.0645 2.5409-3.3033 3.2904-2.6286 1.5672-6.2121 0.31618-2.183-0.74301-4.2986-2.4619-3.6906-2.9986-4.4804-6.5606-0.38013-1.7404 0.13078-3.2149 0.51091-1.4745 2.2578-3.6245 0.68193-0.8393 2.2995-2.7126 1.1368-1.3286 1.4918-1.7656 0.77535-0.95428 0.92481-1.4436 0.16097-0.48001-0.0604-1.1943-0.35713-1.1109 0.13797-1.7203 0.36432-0.4484 1.024-0.48504 0.67115-0.0273 1.4063 0.36 1.4702 0.77463 3.1948 2.1759 1.897 1.5414 2.9167 2.847 1.006 1.2755 0.21198 2.2528-0.39235 0.48289-0.9823 0.48073-0.13653 4e-3 -0.97943-0.20408-0.49869-0.13796-0.98229 0.17534-0.47211 0.32264-1.2661 1.2999-0.81272 1.0003-3.6044 4.2482-1.6642 1.9308-1.3782 3.881 0.22851 1.5981 1.6772 2.7752 0.91978 0.74732 1.938 1.0211 1.0276 0.26228 1.8949-6e-3 0.67474-0.19617 1.2381-0.65462 0.56337-0.45846 1.3387-1.4127l2.0551-2.5294q2.3059-2.9555 2.5926-3.5433 0.30756-0.58995-0.0913-1.3912-0.383-0.7502-0.42396-1.1461-0.041-0.39594 0.2206-0.71787 0.5605-0.68983 1.629-0.33701 1.0894 0.35067 2.9059 1.8266 1.7821 1.4479 2.3232 2.4029 0.55259 0.96434 1e-3 1.6427-0.2709 0.33342-0.53965 0.38228-0.26875 0.0489-1.126-0.0941-0.88961-0.15018-1.3085 0.17749-0.39809 0.32552-2.4949 2.8592z"/><path d="m62.792 177.22-1.0122-0.33639q-0.88564-0.29434-2.0102-0.57442-0.70752-0.1727-0.97462-0.26147-0.94188-0.31303-1.3875-0.94505-0.4456-0.63203-0.21199-1.3349 0.16352-0.49203 0.50533-0.67503 0.36054-0.19238 1.007-0.16485 0.60903 0.0463 0.90863-0.19756 0.30427-0.25792 0.72042-1.1343 0.46287-1.017 1.5611-4.0395 1.1122-3.0178 2.1121-6.0262 0.39246-1.1809 0.34053-1.6352-0.0519-0.45435-0.64729-0.9176-0.84852-0.68788-0.55417-1.5735 0.22893-0.68884 1.0158-0.84881 0.8056-0.16936 2.0005 0.22777 0.39362 0.13082 0.92315 0.32241 1.1668 0.43463 1.701 0.61217 2.0103 0.66811 4.5827 1.3826 0.54354 0.14943 1.3448 0.41574 3.2192 1.0699 4.846 2.4223 2.419 2.0216 2.9652 5.0754 0.49427 2.6932-0.55228 5.8422-0.52795 1.5885-1.5245 3.037-0.99185 1.4344-2.1669 2.3395-2.4156 1.8198-5.6011 1.8226-1.8738 2e-3 -3.7857-0.63374l-1.6823-0.62156-1.448-0.52807q-1.6823-0.62156-2.9756-1.0514zm8.0167-14.258-3.6162 10.881q-0.29434 0.88565-0.0409 1.3914 0.25808 0.49165 1.1437 0.78599 4.1049 1.3642 6.1793-4.8774 1.1447-3.4442 0.81946-5.6597-0.35819-2.445-2.8746-3.2813-0.67478-0.22426-1.0447-0.0506-0.35587 0.17833-0.56611 0.81093z"/><path d="m106.87 167.44-6.4184 13.944q-0.5869 1.2906-1.1362 1.7948-0.54968 0.48935-1.4086 0.51299-0.7108 0.0196-1.2821-0.27592-0.43596-0.22511-0.69627-0.52916-0.2459-0.31926-0.63893-1.1383l-6.4238-13.176q-0.53446-1.1116-0.96009-1.5-0.41124-0.40363-1.1701-0.51612-0.89298-0.13843-0.91866-1.0714-0.0314-1.1402 1.5068-1.7902 1.5378-0.66475 4.4402-0.74464 3.0209-0.0831 4.4551 0.33678 1.4342 0.41993 1.4607 1.3825 0.0171 0.62195-0.73824 1.1762-0.58133 0.41612-0.57155 0.77152 9e-3 0.32579 0.29223 0.92559l1.966 4.125q0.4251 0.90711 0.92858 0.89325 0.48867-0.0134 0.86024-0.51272 0.37156-0.49927 0.98359-1.9536 1.0989-2.6088 1.2788-3.0732 0.17947-0.47916 0.17254-0.73091-0.0139-0.50348-0.71963-0.83972-0.78104-0.37863-0.79816-1.0006-0.0485-1.7622 4.6754-1.8922 2.3545-0.0648 3.3277 0.29372 0.98753 0.3433 1.0128 1.2614 0.0302 1.0958-1.2389 1.2938-0.90045 0.12852-1.1617 0.32836-0.46449 0.35364-1.0794 1.7043z"/><path d="m129.76 165.42 4.794 4.5664q0.67483 0.62672 1.0203 0.77784 0.3401 0.13732 0.8829 0.0203 1.0526-0.23702 1.3874 0.61826 0.39416 1.007-0.647 1.9236-1.0412 0.91658-3.8001 1.9965-3.1176 1.2203-4.7239 1.5467-0.73834 0.14582-1.298-0.0647-0.55124-0.22968-0.76181-0.76768-0.16199-0.41384-0.0415-0.71555 0.12893-0.3209 0.63272-0.74081 0.56197-0.47449 0.35679-0.9987-0.36177-0.92425-1.5439-0.65243-1.265 0.30421-3.4445 1.1573-1.8347 0.71812-2.107 1.0792-0.16673 0.22434-0.19188 0.6478-0.0251 0.42346 0.10444 0.75453 0.11878 0.30349 0.26694 0.35686 0.15655 0.0342 0.8859-0.0127 0.93868-0.0811 1.2302 0.66386 0.64253 1.6416-3.289 3.1804-2.2348 0.87471-3.402 0.98158-1.079 0.0883-1.4624-0.89116-0.16739-0.42764-0.0523-0.74315 0.12892-0.3209 0.60512-0.73001 0.77248-0.66824 1.0063-1.412 0.24225-0.76297 0.36321-2.9738l0.27664-5.0239q0.15809-2.7663 0.0632-4.0654-0.0865-1.3183-0.51006-2.4411-0.45056-1.1918-0.50458-1.6956-0.0456-0.52302 0.23681-1.1426 0.57388-1.3382 2.0499-1.9159 1.3933-0.54535 3.089 0.0477 2.3489 0.79871 8.5279 6.6684zm-8.9209 5.4962 2.7038-1.0583q0.74492-0.29157 0.61533-0.62265-0.17818-0.45523-1.9093-1.8298-0.7876-0.63032-1.1439-0.80902-0.3563-0.17871-0.6322-0.0707-0.49661 0.19438-0.46592 1.2482-7e-3 0.14575-0.0167 1.136-0.0286 1.6338 0.0793 1.9098 0.13498 0.34487 0.76955 0.0965zm-4.8793-19.01q1.8623-0.72892 3.2664-0.51493 0.6238 0.0899 1.1679 0.54511 0.53866 0.4414 0.78163 1.0622 0.53995 1.3795-0.24448 2.5456-0.77063 1.1607-2.7295 1.9274-4.1522 1.6252-5.2267-1.1199-0.52915-1.3519 0.25528-2.518 0.78442-1.1661 2.7295-1.9274zm0.51054 1.2637q-0.63456 0.24837-0.82584 0.8164-0.19669 0.55423 0.10028 1.313 0.25918 0.66215 0.77983 0.93561 0.53444 0.26806 1.1138 0.0413 0.63456-0.24837 0.83964-0.8218 0.21347-0.59262-0.0727-1.3237-0.57234-1.4623-1.935-0.9607z"/><path d="m147.15 155.79q-0.42121 0.37345-0.31711 0.7365 0.11519 0.35322 0.94072 1.2843 1.2481 1.4078 2.1232 2.0375 0.25198 0.17255 0.47093 0.19621 0.21895 0.0236 0.68656-0.0742 0.98939-0.22387 1.5201 0.3747 0.64862 0.73159-7e-3 1.8675-0.65468 1.115-2.8605 3.0707-4.1013 3.6362-5.4772 2.0844-0.23586-0.26603-0.25152-0.52932-0.0255-0.27437 0.1513-0.94585 0.20272-0.75388-0.0143-1.3336-0.21575-0.60063-1.1025-1.7348-0.64234-0.83615-4.9469-5.6912-1.366-1.5408-2.0126-1.9574-0.64657-0.41664-1.3825-0.21951-0.69411 0.19964-1.0274 0.15861-0.34317-0.0521-0.61835-0.36248-0.36362-0.41013-0.3186-0.98459 0.0463-0.59537 0.48384-1.2407 0.36853-0.54452 1.1999-1.2816 0.36579-0.32431 1.9272-1.5107 0.29677-0.22352 0.89534-0.75421 0.99762-0.88449 2.5424-2.4917 0.98425-1.0112 1.4055-1.3847 2.3721-2.1031 4.9362-2.3373 2.3106-0.20742 3.9322 1.6216 0.90415 1.0198 1.1633 2.2946 0.24935 1.2638-0.23072 2.4417-0.19746 0.49184 0.0188 0.73571 0.285 0.32145 1.005 0.0394 1.5373-0.61069 2.8372-0.23873t3.0952 1.928q0.74839 0.64314 1.1334 0.69776 0.37517 0.0435 1.2393-0.36625 0.26958-0.12022 0.61023-0.0263 0.33083 0.0828 0.56669 0.34888 0.30466 0.34363 0.35311 0.9342 0.0386 0.57949-0.20569 1.1525-0.54783 1.2578-2.1662 2.6927-2.1615 1.9164-4.1049 1.6002-0.87328-0.13644-1.8605-0.64702-0.97613-0.5204-2.8297-1.8071-1.1886-0.82701-1.9709-0.90551-0.77124-0.0883-1.5323 0.52704zm-5.655-5.0832 2.1679 2.6908q0.0295 0.0333 0.0884 0.0998 0.3538 0.39904 0.58257 0.43378 0.23987 0.0249 0.59457-0.28957 0.97545-0.86484 0.97659-1.7568-9e-3 -0.903-0.99145-2.0115-1.8967-2.1393-3.4153-0.79295-0.4323 0.38328-0.43275 0.74005-4.6e-4 0.35677 0.42944 0.88631z"/><path d="m170.76 141.27-0.49961 0.94235q-0.43715 0.82456-0.89986 1.8871-0.28766 0.66908-0.4195 0.91776-0.46491 0.87691-1.1621 1.2115-0.69718 0.3346-1.3516-0.0123-0.45809-0.24286-0.58187-0.61029-0.12992-0.38746 4e-3 -1.0204 0.14667-0.59292-0.0441-0.92881-0.20389-0.34284-0.99911-0.89858-0.92611-0.62513-3.7246-2.2094-2.7916-1.5974-5.5925-3.0823-1.0994-0.58287-1.5561-0.60701-0.45667-0.0242-1.0122 0.48613-0.81908 0.72267-1.6436 0.28552-0.64133-0.34001-0.66858-1.1425-0.0334-0.82253 0.55641-1.935 0.1943-0.36647 0.47107-0.85689 0.62213-1.0786 0.88581-1.576 0.99228-1.8716 2.1235-4.29 0.2375-0.51123 0.63302-1.2573 1.589-2.9972 3.1925-4.3771 2.3948-2.0502 5.4969-2.0823 2.7379-0.0407 5.6696 1.5136 1.479 0.78411 2.742 2.0071 1.25 1.216 1.9477 2.5249 1.3939 2.684 0.86837 5.8258-0.30915 1.8482-1.2528 3.6282l-0.89197 1.5559-0.76092 1.3404q-0.89197 1.5559-1.5304 2.76zm-12.73-10.27 10.13 5.3708q0.82456 0.43715 1.3653 0.27112 0.52764-0.17297 0.9648-0.99753 2.0262-3.8218-3.785-6.9027-3.2066-1.7-5.4454-1.7468-2.4706-0.0523-3.7126 2.2905-0.33307 0.62824-0.22317 1.0218 0.11684 0.38052 0.70581 0.69277z"/></g><path d="m97.136 46.414a2.9807 2.9807 0 0 0-2.291 0.68164c-15.143 12.805-27.606 34.366-29.553 54.182-2.2754 23.159 12.184 39.256 26.525 42.684 14.085 3.3668 30.35-0.47191 38.426-14.152 8.0244-13.593 4.652-29.184-2.2637-37.592-6.5923-8.0141-14.685-10.996-21.121-16.859-2.7362-2.4928-5.045-7.34-6.2891-12.371s-1.4387-10.303-0.88086-13.016a2.9807 2.9807 0 0 0-2.5527-3.5566zm-3.5996 10.111c0.18653 2.5261 0.57764 5.1893 1.2461 7.8926 1.4216 5.7489 3.8692 11.525 8.0625 15.346 7.423 6.7626 15.064 9.5936 20.531 16.24 5.144 6.2535 8.3284 19.606 1.7344 30.775-6.5422 11.082-19.787 14.282-31.906 11.385-11.065-2.645-23.989-15.862-21.98-36.303 1.5183-15.454 10.793-33.283 22.312-45.336z" color="#000000" style="-inkscape-stroke:none"/><g fill-rule="evenodd"><path d="m97.679 103.51c-0.98369-0.15434-2.011-0.11845-3.0312 0.13867-4.0811 1.0285-6.591 5.2275-5.5625 9.3086a2.2077 2.2077 0 0 0 2.6797 1.6016 2.2077 2.2077 0 0 0 1.6016-2.6797c-0.44537-1.7672 0.5922-3.5039 2.3594-3.9492 1.7672-0.44535 3.5039 0.5922 3.9492 2.3594a2.2077 2.2077 0 0 0 2.6797 1.6016 2.2077 2.2077 0 0 0 1.6016-2.6797c-0.77136-3.0608-3.3263-5.2381-6.2773-5.7012z" color="#000000" style="-inkscape-stroke:none;paint-order:markers stroke fill"/><path d="m92.167 118.4a1.5666 1.5666 0 0 1-1.1362 1.9019 1.5666 1.5666 0 0 1-1.9019-1.1362 1.5666 1.5666 0 0 1 1.1362-1.9019 1.5666 1.5666 0 0 1 1.9019 1.1362z" stop-color="#000000" style="paint-order:markers stroke fill"/><path d="m115.77 98.947c-0.98368-0.15435-2.011-0.11846-3.0312 0.13867-4.0811 1.0285-6.5891 5.2275-5.5606 9.3086a2.2077 2.2077 0 0 0 2.6797 1.6016 2.2077 2.2077 0 0 0 1.6016-2.6797c-0.44536-1.7672 0.59217-3.5038 2.3594-3.9492 1.7672-0.44536 3.5019 0.59217 3.9473 2.3594a2.2077 2.2077 0 0 0 2.6816 1.6016 2.2077 2.2077 0 0 0 1.6016-2.6816c-0.77138-3.0608-3.3282-5.2362-6.2793-5.6992z" color="#000000" style="-inkscape-stroke:none;paint-order:markers stroke fill"/><path d="m124.17 110.57a1.5666 1.5666 0 0 1-1.1362 1.9019 1.5666 1.5666 0 0 1-1.9019-1.1362 1.5666 1.5666 0 0 1 1.1362-1.9019 1.5666 1.5666 0 0 1 1.9019 1.1362z" stop-color="#000000" style="paint-order:markers stroke fill"/></g><path d="m139.55 65.615-8.9277 8.4102a1.5 1.5 0 0 0-0.0625 2.1191 1.5 1.5 0 0 0 2.1191 0.0644l8.9297-8.4102a1.5 1.5 0 0 0 0.0625-2.1211 1.5 1.5 0 0 0-2.1211-0.0625z" color="#000000" style="-inkscape-stroke:none"/><path d="m148.67 76.518a1.5001 1.5001 0 0 0-1.1484 0.0391l-11.359 5.1738a1.5001 1.5001 0 0 0-0.74414 1.9883 1.5001 1.5001 0 0 0 1.9863 0.74219l11.361-5.1738a1.5001 1.5001 0 0 0 0.74414-1.9863 1.5001 1.5001 0 0 0-0.83984-0.7832z" color="#000000" style="-inkscape-stroke:none"/><path d="m41.329 86.061a1.5 1.5 0 0 0-1.6816 1.293 1.5 1.5 0 0 0 1.293 1.6816l12.162 1.5879a1.5 1.5 0 0 0 1.6816-1.293 1.5 1.5 0 0 0-1.293-1.6816z" color="#000000" style="-inkscape-stroke:none"/><path d="m52.569 97.744-12.428 1.1816a1.5 1.5 0 0 0-1.3516 1.6348 1.5 1.5 0 0 0 1.6348 1.3516l12.428-1.1797a1.5 1.5 0 0 0 1.3516-1.6367 1.5 1.5 0 0 0-1.6348-1.3516z" color="#000000" style="-inkscape-stroke:none"/><g fill-rule="evenodd"><path d="m171.85 69.269c-2.8075 0-5.1154 2.3079-5.1154 5.1154 0 0.14111 6e-3 0.28073 0.0176 0.41909-3.8695 0.91799-6.7924 4.2986-7.0357 8.3638-2.2134 1.0618-3.6814 3.3226-3.683 5.842-2e-5 3.5617 2.9211 6.4823 6.4828 6.4823 2.0987-2e-3 4.0446-1.0226 5.2482-2.6872 0.3599 0.0434 0.72594 0.0662 1.0971 0.0661 0.81982-4e-5 1.6152-0.10956 2.3725-0.31368 1.1899 2.2936 3.5843 3.8066 6.2528 3.808a1.5002 1.5002 0 0 0 2e-3 0c3.8744-3e-5 7.0466-3.1727 7.0466-7.0471-3e-5 -3.7332-2.9457-6.814-6.6265-7.0337-0.27026-1.7102-1.0198-3.3083-2.157-4.607 0.75532-0.89227 1.2134-2.0429 1.2134-3.2928 0-2.8075-2.308-5.1154-5.1154-5.1154zm0 3.0003c1.1861 0 2.1151 0.92899 2.1151 2.1151 0 0.80814-0.43155 1.4967-1.0816 1.8536a1.5002 1.5002 0 0 0-0.0786 0.031c-0.29534 0.15042-0.62151 0.22938-0.95291 0.23047h-2e-3c-0.0482-8e-5 -0.0961-2e-3 -0.14366-5e-3 -1e-3 -8e-5 -2e-3 8e-5 -4e-3 0-0.73013-0.0516-1.3812-0.4761-1.7239-1.1317a1.5002 1.5002 0 0 0-0.0475-0.0729c-0.1263-0.27311-0.19637-0.57954-0.19637-0.90537 0-1.1861 0.92898-2.1151 2.1151-2.1151zm-3.8819 5.4312c0.94102 1.0984 2.3354 1.7989 3.8819 1.7989h2e-3 2e-3c0.41629-2.9e-4 0.82137-0.0514 1.2098-0.14728 1.196 1.1489 1.9584 2.6792 1.9585 4.3584 0 0.0379-8.8e-4 0.0755-2e-3 0.11318a1.5002 1.5002 0 0 0-5.2e-4 6e-3c-0.0452 2.3513-1.4185 4.464-3.5486 5.4606a1.5002 1.5002 0 0 0-0.0754 0.0424c-0.77165 0.34562-1.6292 0.53791-2.5342 0.53795-0.48974 1e-5 -0.96529-0.0565-1.4211-0.16278a1.5002 1.5002 0 0 0-0.0672-0.0191c-2.4946-0.62065-4.3213-2.7052-4.6276-5.2322-0.029-0.24381-0.0439-0.49211-0.0439-0.74414v-2e-3c3e-3 -3.0949 2.2813-5.5706 5.2664-6.01zm9.9079 7.6383c2.06 0.19854 3.6597 1.8627 3.6597 3.9791-1e-5 2.2531-1.7942 4.0468-4.0473 4.0468-1.4908-8.1e-4 -2.654-0.92461-3.3512-2.1751 1.9237-1.3626 3.3037-3.4468 3.7388-5.8508zm-17.698 1.2873c0.74611 2.2073 2.3139 4.0437 4.3356 5.1413-0.57919 0.42926-1.2446 0.72355-1.9973 0.7245-1.9403 1e-5 -3.4825-1.5422-3.4825-3.4825 9.7e-4 -0.96688 0.48385-1.7523 1.1441-2.3833zm11.411 14.575c-1.6526 0-3.0122 1.3591-3.0122 3.0117 0 1.6526 1.3596 3.0117 3.0122 3.0117 1.6526 0 3.0117-1.3591 3.0117-3.0117 0-1.6526-1.3591-3.0117-3.0117-3.0117zm0 1.8516c0.65164 0 1.1602 0.50849 1.1601 1.1601 0 0.65164-0.5085 1.1601-1.1601 1.1601s-1.1606-0.5085-1.1606-1.1601 0.50901-1.1601 1.1606-1.1601z" color="#000000" style="-inkscape-stroke:none;paint-order:fill markers stroke"/><path d="m24.194 67.232c-1.6526 0-3.0117 1.3591-3.0117 3.0117s1.3591 3.0117 3.0117 3.0117c1.6526 0 3.0117-1.3591 3.0117-3.0117s-1.3591-3.0117-3.0117-3.0117zm0 1.8516c0.65164 0 1.1601 0.5085 1.1601 1.1601 0 0.65163-0.5085 1.1601-1.1601 1.1601-0.65163 0-1.1601-0.5085-1.1601-1.1601 0-0.65164 0.5085-1.1601 1.1601-1.1601zm-4.7635 9.2346c-4.0675 5.9e-4 -7.5337 2.8463-8.4284 6.6993-2.3148 0.41788-4.0933 2.463-4.0933 4.8907 0 2.7254 2.2417 4.9666 4.9671 4.9666 0.97123 0 1.8807-0.28489 2.6494-0.77463 0.78407 0.53969 1.6505 0.94466 2.5626 1.2015-0.2272 0.66602-0.34652 1.3697-0.34727 2.0846a1.5002 1.5002 0 0 0 0 2e-3c-2e-5 3.5617 2.9191 6.4808 6.4807 6.4807 3.5617 2e-5 6.4823-2.9191 6.4823-6.4807a1.5002 1.5002 0 0 0 0-5.1e-4 1.5002 1.5002 0 0 0 0-5.2e-4 1.5002 1.5002 0 0 0 0-5.2e-4 1.5002 1.5002 0 0 0 0-5.2e-4c-4.3e-4 -0.45144-0.0489-0.8996-0.14211-1.3379 1.6658-0.80533 2.8257-2.5155 2.8257-4.4762 5e-5 -2.5028-1.89-4.5989-4.3093-4.9248-0.17226-4.6129-3.9943-8.3292-8.6475-8.3292zm0 2.9998c3.1407-3e-5 5.6545 2.5137 5.6544 5.6544 0 0.33836-0.0293 0.6692-0.0853 0.99064a1.5002 1.5002 0 0 0-3e-3 9e-3c-0.23215 1.2908-0.90517 2.4614-1.9048 3.3104a1.5002 1.5002 0 0 0-0.0171 0.0171 1.5002 1.5002 0 0 0-0.0258 0.0181c-0.88373 0.73596-1.9659 1.1821-3.1032 1.2857-6e-3 5.1e-4 -0.0114 1e-3 -0.017 2e-3 -0.0293 3e-3 -0.0585 5e-3 -0.0879 7e-3 -0.0387 3e-3 -0.0774 5e-3 -0.11627 7e-3 -8e-3 4e-4 -0.0155 6.7e-4 -0.0233 1e-3 -0.0352 2e-3 -0.0705 3e-3 -0.10593 4e-3 -6e-3 1.6e-4 -0.0115 3.8e-4 -0.0171 5.2e-4 -8.6e-4 2e-5 -2e-3 -2e-5 -3e-3 0-0.0477 1e-3 -0.0956 2e-3 -0.14366 2e-3 -1.0589-5.6e-4 -2.0387-0.38428-2.9254-0.93431 0.2163-0.55487 0.33538-1.1567 0.33538-1.7844 0-0.052-9.7e-4 -0.10394-3e-3 -0.15555-6.6e-4 -0.0209-2e-3 -0.0417-3e-3 -0.0625-2e-3 -0.0464-4e-3 -0.0929-8e-3 -0.13901-1e-4 -1e-3 -4.2e-4 -3e-3 -5.2e-4 -4e-3 -4e-3 -0.0576-9e-3 -0.115-0.0155-0.17208-5.2e-4 -5e-3 -2e-3 -9e-3 -2e-3 -0.014-6e-3 -0.0537-0.0124-0.10698-0.0202-0.16019-6.6e-4 -4e-3 -1e-3 -9e-3 -2e-3 -0.0134-0.24047-1.6261-1.2805-3.0064-2.7027-3.7222 0.67316-2.3925 2.7602-4.1467 5.3439-4.147zm-7.5546 6.6213c0.0753 0 0.14888 4e-3 0.2217 0.0119a1.5002 1.5002 0 0 0 0.0165 4e-3c0.84267 0.10286 1.494 0.70612 1.6769 1.4966 1.2e-4 5.3e-4 4e-4 1e-3 5.2e-4 2e-3 0.0133 0.0579 0.0238 0.11749 0.032 0.17725 1.6e-4 1e-3 3.5e-4 2e-3 5.2e-4 4e-3 4e-3 0.0291 7e-3 0.0584 0.01 0.0879 2e-3 0.0175 2e-3 0.0351 4e-3 0.0527 7.3e-4 0.0112 2e-3 0.0223 3e-3 0.0336 2e-3 0.0332 3e-3 0.0666 3e-3 0.10025-6e-5 0.0293-7.1e-4 0.0582-2e-3 0.0873-4e-5 1e-3 5e-5 2e-3 0 3e-3 -0.0211 0.43585-0.18752 0.8522-0.47284 1.1849a1.5002 1.5002 0 0 0-0.0667 0.0925c-0.35553 0.37084-0.85832 0.59893-1.4252 0.59893-1.104 0-1.9668-0.86276-1.9668-1.9668 0-1.104 0.86277-1.9689 1.9668-1.9689zm15.779 1.7208c0.98136 0.11757 1.7327 0.89394 1.7327 1.912 2e-5 1.0637-0.80096 1.9028-1.8469 1.9627a1.5002 1.5002 0 0 0-0.0145 0c-0.034 2e-3 -0.0693 4e-3 -0.10335 4e-3h-2e-3c-0.0219-4e-5 -0.0439-8e-4 -0.0656-2e-3 -0.61146-0.0242-1.091-0.37892-1.4304-0.85886 0.76591-0.87017 1.3604-1.8944 1.7301-3.0184zm-4.1605 4.947c0.73057 0.94143 1.7866 1.6045 2.975 1.8386 0.10338 0.31077 0.23414 0.61522 0.23461 0.94465-1e-3 1.9394-1.5428 3.4783-3.4825 3.4783-1.9396 1e-5 -3.4794-1.539-3.4804-3.4783 6.8e-4 -0.66305 0.278-1.2688 0.64182-1.8169 1.1133-0.12315 2.1643-0.45885 3.1114-0.96635z" color="#000000" style="-inkscape-stroke:none;paint-order:fill markers stroke"/><path transform="translate(-158.2 -47.125)" d="m271.07 159.68-11.947 3.0117c-1.2268 0.30932-1.8395 1.6863-1.248 2.8047 1.7126 3.2358 5.5959 4.6786 9.2539 3.7578h2e-3c3.6577-0.92261 6.3926-4.0344 6.3672-7.6953-9e-3 -1.2652-1.2008-2.1876-2.4277-1.8789z" color="#000000" style="-inkscape-stroke:none;paint-order:markers stroke fill"/></g></g></g></g></svg>
